# xmcd
#
# Track frame offsets:
#   150
#   13943
#   26172
#   39054
#   50382
#   61257
#   74472
#   86407
#   100309
#   111106
#   125629
#   136081
#   147481
#   156660
#   168274
#   181277
#   194853
#   209682
#   224325
#   238560
#   252338
#   265075
#   275662
#   286183
#   298655
#
# Disc length: 4091 seconds
#
# Revision: 0
# Processed by: cddbd v1.4PL0 Copyright (c) Steve Scherf et al.
# Submitted via: uFREEDB 1.6.0
#
DISCID=8a0ff919
DTITLE=Martin, Dean - Tracks 1952
DYEAR=1900
DGENRE=Vocal
TTITLE0=When You're Smiling
TTITLE1=Won't You Surrender
TTITLE2=All I Have To Give You
TTITLE3=Pretty As A Picture
TTITLE4=Oh Marie
TTITLE5=I Passed Your House Tonight
TTITLE6=Bet I Cha
TTITLE7=You Belong To Me
TTITLE8=Kiss
TTITLE9=What Could Be More Beautiful
TTITLE10=Little Did We Know
TTITLE11=Susan
TTITLE12=The Peanut Vendor
TTITLE13=I Know A Dream When I See One
TTITLE14=Second Chance
TTITLE15=Homity Grits
TTITLE16=Just One More Chance
TTITLE17=I'm Yours
TTITLE18=With My Eyes Wide Open I'm Dreaming
TTITLE19=There's My Lover
TTITLE20=A Girl Named Mary And A Boy Named Bill
TTITLE21=Louise
TTITLE22=Who's Your Little Who-Zis
TTITLE23=I Feel Like A Feather In The Breeze
TTITLE24=I Feel A Song Comin' On
EXTD=
EXTT0=
EXTT1=
EXTT2=
EXTT3=
EXTT4=
EXTT5=
EXTT6=
EXTT7=
EXTT8=
EXTT9=
EXTT10=
EXTT11=
EXTT12=
EXTT13=
EXTT14=
EXTT15=
EXTT16=
EXTT17=
EXTT18=
EXTT19=
EXTT20=
EXTT21=
EXTT22=
EXTT23=
EXTT24=
PLAYORDER=
